{"title":"Suck.It.Up.(2017).Eng.Subs.HDRip.H264.MPEG-4.AAC.Spy1984","magnet":"magnet:?xt=urn:btih:021ebaffe8f594355722de85f8b3f27e134115c5&dn=Suck.It.Up.%282017%29.Eng.Subs.HDRip.H264.MPEG-4.AAC.Spy1984&tr=udp%3A%2F%2Ftracker.leechers-paradise.org%3A6969&tr=udp%3A%2F%2Fzer0day.ch%3A1337&tr=udp%3A%2F%2Fopen.demonii.com%3A1337&tr=udp%3A%2F%2Ftracker.coppersurfer.tk%3A6969&tr=udp%3A%2F%2Fexodus.desync.com%3A6969","uploader":"spy1984","categoryP":"video","categoryS":"movies","size":"449202142","seeders":"0","leechers":"0","description":"Two best friends take off on a wild road trip to get over the death of the man they both loved. \r\n <a href=\"\nhttp://www.4kw.in/4643.html\" rel=\"nofollow\" target=\"_NEW\">\nhttp://www.4kw.in/4643.html</a>\r\n <a href=\"\nhttp://www.4kw.in/4644.html\" rel=\"nofollow\" target=\"_NEW\">\nhttp://www.4kw.in/4644.html</a>\r\n <a href=\"\nhttp://www.4kw.in/4645.html\" rel=\"nofollow\" target=\"_NEW\">\nhttp://www.4kw.in/4645.html</a>\r\n <a href=\"\nhttp://www.4kw.in/4646.html\" rel=\"nofollow\" target=\"_NEW\">\nhttp://www.4kw.in/4646.html</a>\r\n\r\nGeneral \r\n\r\n\r\nFormat : MPEG-4 \r\nFormat profile : Base Media \r\nCodec ID : isom (isom/iso2/avc1/mp41) \r\nFile size : 428 MiB \r\nDuration : 1 h 43 min \r\nOverall bit rate : 579 kb/s \r\nWriting application : Lavf57.83.100 \r\n\r\nVideo \r\n\r\n\r\nID : 1 \r\nFormat : AVC \r\nFormat/Info : Advanced Video Codec \r\nFormat profile : <a href=\"/cdn-cgi/l/email-protection\" class=\"__cf_email__\" data-cfemail=\"bbf3d2dcd3fbf788958a\">[email&#xA0;protected]</a> \r\nFormat settings : CABAC / 5 Ref Frames \r\nFormat settings, CABAC : Yes \r\nFormat settings, RefFrames : 5 frames \r\nCodec ID : avc1 \r\nCodec ID/Info : Advanced Video Coding \r\nDuration : 1 h 43 min \r\nBit rate : 512 kb/s \r\nWidth : 720 pixels \r\nHeight : 304 pixels \r\nDisplay aspect ratio : 2.35:1 \r\nFrame rate mode : Constant \r\nFrame rate : 23.976 (24000/1001) FPS \r\nColor space : YUV \r\nChroma subsampling : 4:2:0 \r\nBit depth : 8 bits \r\nScan type : Progressive \r\nBits/(Pixel*Frame) : 0.098 \r\nStream size : 378 MiB (88%) \r\n\r\n\r\nAudio \r\n\r\n\r\nID : 2 \r\nFormat : AAC \r\nFormat/Info : Advanced Audio Codec \r\nFormat profile : LC \r\nCodec ID : mp4a-40-2 \r\nDuration : 1 h 43 min \r\nDuration_LastFrame : -11 ms \r\nBit rate mode : Constant \r\nBit rate : 64.7 kb/s \r\nChannel(s) : 2 channels \r\nChannel positions : Front: L R \r\nSampling rate : 48.0 kHz \r\nFrame rate : 46.875 FPS (1024 SPF) \r\nCompression mode : Lossy \r\nStream size : 47.8 MiB (11%) \r\nDefault : Yes \r\nAlternate group : 1 \r\n\r\n\r\n\r\n\r\nID : 2 \r\nFormat : AAC \r\nFormat/Info : Advanced Audio Codec \r\nFormat profile : LC \r\nCodec ID : mp4a-40-2 \r\nDuration : 1 h 34 min \r\nDuration_LastFrame : -11 ms \r\nBit rate mode : Constant \r\nBit rate : 64.7 kb/s \r\nChannel(s) : 2 channels \r\nChannel positions : Front: L R \r\nSampling rate : 48.0 kHz \r\nFrame rate : 46.875 FPS (1024 SPF) \r\nCompression mode : Lossy \r\nStream size : 43.6 MiB (11%) \r\nDefault : Yes \r\nAlternate group : 1","last_updated":"2018-01-06T12:00:25.389Z","parsed":{"xt":"urn:btih:021ebaffe8f594355722de85f8b3f27e134115c5","dn":"Suck.It.Up.(2017).Eng.Subs.HDRip.H264.MPEG-4.AAC.Spy1984","tr":["udp://exodus.desync.com:6969","udp://open.demonii.com:1337","udp://tracker.coppersurfer.tk:6969","udp://tracker.leechers-paradise.org:6969","udp://zer0day.ch:1337"],"infoHash":"021ebaffe8f594355722de85f8b3f27e134115c5","infoHashBuffer":{"type":"Buffer","data":[2,30,186,255,232,245,148,53,87,34,222,133,248,179,242,126,19,65,21,197]},"name":"Suck.It.Up.(2017).Eng.Subs.HDRip.H264.MPEG-4.AAC.Spy1984","announce":["udp://exodus.desync.com:6969","udp://open.demonii.com:1337","udp://tracker.coppersurfer.tk:6969","udp://tracker.leechers-paradise.org:6969","udp://zer0day.ch:1337"],"urlList":[]}}